<?xml version="1.0" encoding="UTF-8"?>
<!DOCTYPE svg PUBLIC "-//W3C//DTD SVG 1.1//EN" "http://www.w3.org/Graphics/SVG/1.1/DTD/svg11.dtd">
<svg xmlns="http://www.w3.org/2000/svg" version="1.1" width="128px" height="128px" style="shape-rendering:geometricPrecision; text-rendering:geometricPrecision; image-rendering:optimizeQuality; fill-rule:evenodd; clip-rule:evenodd" xmlns:xlink="http://www.w3.org/1999/xlink">
<g><path style="opacity:0.961" fill="#fdc400" d="M 54.5,12.5 C 62.3835,15.8983 67.2169,21.8983 69,30.5C 72.049,43.9363 72.2157,57.4363 69.5,71C 69.5798,72.8937 69.9131,74.7271 70.5,76.5C 72.6114,77.8485 74.4447,77.5152 76,75.5C 77.05,66.539 77.8833,57.539 78.5,48.5C 84.912,55.536 88.7454,63.8693 90,73.5C 92.9256,87.6476 89.4256,99.8143 79.5,110C 59.1173,120.869 44.9506,115.369 37,93.5C 36.1609,86.4333 36.4942,79.4333 38,72.5C 40.8869,65.0583 44.5536,58.0583 49,51.5C 54.9613,39.0674 56.7947,26.0674 54.5,12.5 Z"/></g>
</svg>
